<?xml version="1.0" encoding="utf-8"?>
<!-- Generator: Adobe Illustrator 16.0.0, SVG Export Plug-In . SVG Version: 6.00 Build 0)  -->
<!DOCTYPE svg PUBLIC "-//W3C//DTD SVG 1.1//EN" "http://www.w3.org/Graphics/SVG/1.1/DTD/svg11.dtd">
<svg version="1.1" id="Deer-Decal" xmlns="http://www.w3.org/2000/svg" xmlns:xlink="http://www.w3.org/1999/xlink" x="0px" y="0px"
	 width="587px" height="543px" viewBox="0 0 587 543" enable-background="new 0 0 587 543" xml:space="preserve">
<style type="text/css">
.front-CE {fill:#ffffff;}
</style>
<g id="Vinyl-Decal">
	<polyline id="Cut-Contour-Perf" display="none" fill="none" stroke="#ED1B23" stroke-miterlimit="10" points="-18,561.002 
		-18,-18 605.001,-18 	"/>
	<path id="Bleed" class="front-CE" display="none" d="M578.74,94.891c-2.418,0.129-4.86,0.938-7.23,0.756c-4.443-0.339-8.919-0.855-13.235-1.903
		c-4.969-1.206-9.914-2.745-14.584-4.822c-1.622-0.719-3.745-3.986-3.304-5.21c1.743-4.849,4.328-9.395,6.763-13.958
		c2.18-4.087,4.635-8.014,6.808-12.103c0.414-0.782,0.08-1.993,0.09-3.006c-0.892,0.208-1.815,0.316-2.66,0.658
		c-0.57,0.229-1.098,0.723-1.523,1.215c-4.804,5.585-9.415,11.365-14.42,16.74c-4.057,4.359-8.475,8.368-15.018,7.127
		c-3.363-0.639-6.842-0.69-10.193-1.368c-3.57-0.724-6.678-2.547-9.085-5.474c-1.456-1.766-1.267-3.696-0.178-5.564
		c1.086-1.871,2.61-1.841,4.456-1.228c6.349,2.11,12.911,2.478,19.443,0.844c2.529-0.632,5.811-1.209,6.243-5.404
		c-1.342-0.528-2.556-1.247-3.86-1.475c-5.835-1.026-11.708-1.847-17.541-2.881c-2.148-0.382-2.915-2.868-1.484-4.658
		c2.927-3.66,6.111-7.105,8.892-10.881c1.986-2.695,4.103-5.586,5.065-8.736c1.607-5.258,2.463-10.774,3.371-16.224
		c0.295-1.771-0.234-3.673-0.389-5.517c-0.566-0.057-1.133-0.114-1.701-0.171c-1.971,4.124-3.822,8.317-5.953,12.353
		c-1.834,3.473-3.695,7.014-6.063,10.087c-4.387,5.689-9.097,11.11-13.79,16.528c-1.573,1.817-3.436,3.625-6.029,1.819
		c-2.305-1.601-1.765-3.737-0.739-5.873c0.42-0.876,0.956-1.731,1.589-2.45c4.292-4.889,8.693-9.675,12.876-14.661
		c0.748-0.894,0.641-2.572,0.931-3.889c-1.146,0.298-2.475,0.3-3.414,0.943c-4.515,3.084-8.99,6.252-13.354,9.57
		c-2.564,1.949-4.992,4.133-7.32,6.393c-3.506,3.404-7.52,5.305-12.234,5.487c-3.707,0.145-7.483-3.983-6.195-7.289
		c1.303-3.333,3.292-6.419,5.231-9.437c0.727-1.128,2.329-1.596,3.254-2.637c7.181-8.063,13.246-17.377,23.129-22.365
		c0.773-0.389,1.354-1.707,1.552-2.688c0.093-0.453-0.888-1.543-1.501-1.646c-3.851-0.629-7.912-0.821-11.111,1.893
		c-5.819,4.938-11.481,10.12-16.865,15.577c-3.913,3.968-6.977,8.874-10.952,12.756c-4.64,4.532-8.66,8.856-10.672,15.698
		c-2.063,7.01-6.266,13.388-9.658,19.974c-2.03,3.945-3.056,8.023-3.246,12.11c-1.413-0.823-2.263-1.291-2.263-1.291
		c-2.538-0.867-5.054-1.869-7.456-3.071c-3.246-1.625-4.166-1.167-4.2,2.68c-0.077,8.307-0.176,16.615-0.063,24.919
		c0.119,8.882-0.338,17.989,7.23,24.639c1.62,1.424,2.903,3.242,4.478,4.729c1.646,1.557,1.679,2.936,0.405,4.825
		c-1.919,2.845-3.639,5.843-5.281,8.868c-3.887,7.153-7.244,14.655-11.647,21.45c-3.389,5.23-7.864,9.78-12.178,14.31
		c-6.064,6.367-12.379,12.489-18.712,18.579c-1.057,1.016-2.721,1.763-4.164,1.883c-2.912,0.243-5.92,0.323-8.793-0.147
		c-16.715-2.738-33.525-3.28-50.335-1.793c-5.942,0.526-11.332-0.967-16.638-2.774c-44.8-28.594-99.504-25.202-99.504-25.202
		c-34.288-0.468-57.787,5.894-72.298,11.974c-0.078,0.017-0.158,0.032-0.236,0.05c-10.932,3.657-18.748,9.53-24.34,16.059
		c-3.674,3.022-7.414,5.962-11.613,8.277c-7.294,4.02-13.546,9.694-21.249,13.21c-6.062,2.766-11.831,6.33-18.309,7.937
		c-5.819,1.443-11.792,2.366-17.748,3.034c-2.424,0.272-4.99-1.122-7.479-1.076c-6.903,0.129-13.814,0.444-20.693,1.031
		c-3.885,0.331-5.669,3.989-3.222,6.383c2.637,2.579,5.678,4.827,8.817,6.747c4.402,2.693,9.062,4.943,13.6,7.406
		c0.66,0.358,1.203,0.957,1.877,1.27c4.144,1.936,8.309,3.821,12.468,5.721c0.345,0.158,0.69,0.38,1.053,0.422
		c4.299,0.487,8.601,1.285,12.907,1.322c4.395,0.042,8.912-0.181,13.158-1.224c3.16-0.774,6.103-2.351,9.522-2.305
		c0.986,0.014,2.075-0.903,2.964-1.6c2.328-1.821,4.618-3.699,6.831-5.667c1.338-1.191,2.175-1.455,2.84,0.615
		c1.022,3.191,2.142,6.351,3.326,9.48c0.837,2.21,1.944,4.237,3.249,6.098c10.409,28.133,30.171,44.21,36.894,49.053
		c0.657,0.013,1.596,0.989,2.307,1.575c1.052,0.867,1.891,2.07,3.038,2.742c5.133,3.007,7.546,8.167,9.924,13.252
		c0.528,1.131-0.053,3.148-0.708,4.449c-2.308,4.574-5.08,8.91-7.287,13.532c-3.504,7.336,0.506,15.781,8.126,17.254
		c4.973,0.961,10,1.689,15.03,2.256c11.038,1.241,21.56,4.634,32.091,7.943c7.82,2.457,15.598,5.103,23.25,8.059
		c7.872,3.042,15.597,6.494,23.318,9.927c1.549,0.689,2.723,1.973,1.588,4.192c-3.809,7.453-7.496,14.971-11.207,22.474
		c-1.353,2.739-2.907,4.455-6.484,4.102c-6.831-0.677-13.729-0.606-20.588-1.032c-3.16-0.196-5.632,0.311-6.5,3.913
		c-0.571,2.369-2.297,2.482-4.249,2.3c-7.716-0.726-15.122-0.342-20.689,6.344c-0.277,0.332-0.776,0.464-1.155,0.715
		c-3.928,2.599-7.854,5.204-11.78,7.807c0.065,0.34,0.13,0.678,0.196,1.018c1.054,0.153,2.106,0.421,3.163,0.438
		c8.807,0.147,17.616,0.395,26.421,0.288c3.096-0.039,6.174-1.024,9.274-1.481c2.62-0.388,5.256-0.746,7.896-0.867
		c0.678-0.03,1.842,0.781,1.977,1.392c0.141,0.642-0.518,1.699-1.115,2.244c-10.454,9.537-20.924,19.056-31.468,28.488
		c-1.833,1.64-2.555,3.38-2.046,5.796c0.449,2.129,1.087,4.306,1.031,6.444c-0.152,5.739-1.008,11.48-0.855,17.198
		c0.105,3.952,1.022,8.015,2.328,11.752c1.015,2.909,3.085,5.47,4.898,8.026c0.754,1.063,1.952,1.939,3.127,2.522
		c6.254,3.102,12.543,6.131,18.875,9.061c1.124,0.52,2.505,0.453,3.768,0.658c0.178-1.203,0.483-2.405,0.488-3.608
		c0.003-0.769-0.327-1.602-0.698-2.298c-2.371-4.46-4.862-8.854-7.182-13.339c-3.273-6.331-5.97-12.977-3.319-20.152
		c2.021-5.474,4.424-10.947,7.549-15.821c7.135-11.125,14.87-21.874,24.897-30.527c5.96-5.144,12.563-8.724,20.886-8.333
		c5.486,0.258,11.047-1.16,16.533-0.903c7.781,0.364,13.5-2.099,16.962-9.535c0.296-0.637,2.699-0.977,3.565-0.465
		c2.713,1.606,5.282,3.54,7.673,5.626c1.909,1.667,4.31,3.463,5.029,5.694c1.571,4.88,5.397,7.371,8.549,10.751
		c8.228,8.822,19.018,11.502,29.92,14.09c0.729,0.174,1.619-0.358,2.434-0.563c-0.212-0.722-0.28-1.532-0.656-2.146
		c-3.411-5.579-6.894-11.11-10.316-16.681c-2.725-4.435-5.62-8.651-10.41-11.087c-0.935-0.476-1.763-1.523-2.249-2.51
		c-3.199-6.483-6.231-13.051-9.449-19.523c-1.117-2.245-0.905-3.766,1.132-5.335c3.241-2.5,6.568-4.993,9.341-7.991
		c2.789-3.019,5.066-3.192,7.936-0.404c1.606,1.562,3.351,2.719,5.591,0.551c0.554-0.537,2.362-0.248,3.28,0.259
		c1.669,0.921,3.012,2.448,4.66,3.424c1.297,0.767,2.908,1.654,4.274,1.502c6.339-0.707,12.64-1.758,18.955-2.683
		c2.372-0.349,3.132-1.844,1.35-3.401c-2.965-2.593-6.097-5.282-9.619-6.837c-4.704-2.072-9.874-3.011-14.782-4.633
		c-1.414-0.467-2.616-1.606-3.915-2.438c0.879-1.094,1.654-2.303,2.654-3.263c4.592-4.409,9.813-8.159,12.915-14.074
		c0.451-0.858,1.247-1.576,2.13-2.202c-0.152-0.024-0.303-0.045-0.456-0.069c0,0,4.686-2.152,11.805-6.438
		c1.333-1.089,2.735-1.929,4.188-2.6c17.462-11.151,44.675-32.592,57.762-64.112c0.422-2.028,0.76-4.086,1-6.174
		c0.427-3.704,1.43-7.403,2.637-10.936c2.174-6.361,5.758-11.512,10.445-16.625c10.316-11.248,19.438-23.694,28.524-36.054
		c2.87-3.904,4.12-9.071,6.029-13.696c0.921-2.229,1.231-4.843,2.544-6.763c5.088-7.446,12.057-12.451,21.015-12.82
		c7.723-0.318,14.328-3.768,21.307-6.178c2.48-0.856,4.193-1.128,6.549,0.355c3.896,2.451,8.435,4.342,12.893,2.516
		c6.546-2.683,12.821-6.089,19.076-9.452c1.415-0.761,3.098-2.532,3.234-3.977c0.502-5.306-0.215-10.374-5.037-13.835
		c-1.649-1.183-2.85-3.03-4.514-4.183c-1.594-1.104-3.482-2.276-5.315-2.416c-5.879-0.451-11.141-2.32-16.287-5.255
		c-5.574-3.177-11.43-5.893-17.319-8.427c-6.938-2.985-14.029-5.536-19.907-10.637c-2.729-2.369-5.528-5.001-8.76-6.318
		c-0.643-0.262-1.186-0.542-1.642-0.843c-1.046-0.606-2.21-1.397-3.441-2.31c0.001-0.276,0.009-0.551,0.015-0.818
		c0.084-4.738-0.223-9.283-3.848-12.735c-0.706-0.67-1.195-1.837-1.348-2.856c-1.21-8.094,6.326-14.261,11.533-15.255
		c5.609-1.07,11.106-1.299,16.729,0.118c6.337,1.594,12.957,2.057,19.285,3.678c7.082,1.816,13.934,4.532,20.979,6.53
		c2.423,0.688,5.149,0.761,7.689,0.482c6.114-0.675,12.241-1.486,18.28-2.744c2.375-0.495,4.586-2.225,6.749-3.612
		c0.672-0.43,0.934-1.591,1.382-2.417C580.58,95.456,579.651,94.844,578.74,94.891z M264.502,365.66
		c-0.846,2.124-1.706,5.106-3.331,5.792c-1.537,0.652-4.117-1.096-6.172-1.956c-6.434-2.691-12.809-5.534-19.263-8.172
		c-3.012-1.231-6.104-2.332-9.247-3.13c-5.353-1.356-6.271-2.904-4.685-8.238c0.62-2.083,1.234-4.319,1.123-6.445
		c-0.19-3.659,1.474-5.999,3.876-8.358c2.835-2.787,5.39-5.893,7.9-9c1.51-1.87,2.821-2.303,4.26-0.143
		c2.669,4.014,5.645,7.429,9.846,10.146c3.233,2.09,4.941,6.516,7.75,9.48c2.708,2.859,5.976,5.158,8.962,7.749
		c0.863,0.748,1.6,1.646,2.309,2.386C266.621,359.422,265.719,362.605,264.502,365.66z M486.416,69.743
		c-2.062,6.219-6.97,9.931-11.192,14.214c-1.611,1.636-3.112,0.672-3.359-1.431c-0.377-3.246-0.28-6.563-0.666-9.806
		c-0.148-1.256-1.063-2.392-1.628-3.586c-0.747,0.946-1.978,1.812-2.156,2.853c-0.967,5.604-2.258,11.257-2.334,16.883
		c-0.093,6.876,0.682,13.753,1.3,20.611c-1.329-1.329-2.49-2.512-3.402-3.451c-0.479-6.312,0.004-12.74,0.068-19.118
		c0.049-5.062,0.186-10.126,0.091-15.18c-0.016-0.882-0.988-1.72-1.515-2.579c-0.834,0.746-2.006,1.322-2.441,2.263
		c-2.774,5.975-3.818,12.415-4.731,18.887c-0.156,1.115-0.634,2.189-1.135,3.662c-1.077-0.942-2.223-1.878-3.406-2.799
		c-4.021-8.919-4.341-16.722,3.22-24.475c7.055-7.24,15.111-8.011,23.885-5.125l4.925,0.897
		C486.715,62.834,487.992,64.991,486.416,69.743z"/>
	<path id="Deer" class="front-CE" d="M578.74,94.891c-2.418,0.129-4.86,0.938-7.23,0.756c-4.443-0.339-8.919-0.855-13.235-1.903
		c-4.969-1.206-9.914-2.745-14.584-4.822c-1.622-0.719-3.745-3.986-3.304-5.21c1.743-4.849,4.328-9.395,6.763-13.958
		c2.18-4.087,4.635-8.014,6.808-12.103c0.414-0.782,0.08-1.993,0.09-3.006c-0.892,0.208-1.815,0.316-2.66,0.658
		c-0.57,0.229-1.098,0.723-1.523,1.215c-4.804,5.585-9.415,11.365-14.42,16.74c-4.057,4.359-8.475,8.368-15.018,7.127
		c-3.363-0.639-6.842-0.69-10.193-1.368c-3.57-0.724-6.678-2.547-9.085-5.474c-1.456-1.766-1.267-3.696-0.178-5.564
		c1.086-1.871,2.61-1.841,4.456-1.228c6.349,2.11,12.911,2.478,19.443,0.844c2.529-0.632,5.811-1.209,6.243-5.404
		c-1.342-0.528-2.556-1.247-3.86-1.475c-5.835-1.026-11.708-1.847-17.541-2.881c-2.148-0.382-2.915-2.868-1.484-4.658
		c2.927-3.66,6.111-7.105,8.892-10.881c1.986-2.695,4.103-5.586,5.065-8.736c1.607-5.258,2.463-10.774,3.371-16.224
		c0.295-1.771-0.234-3.673-0.389-5.517c-0.566-0.057-1.133-0.114-1.701-0.171c-1.971,4.124-3.822,8.317-5.953,12.353
		c-1.834,3.473-3.695,7.014-6.063,10.087c-4.387,5.689-9.097,11.11-13.79,16.528c-1.573,1.817-3.436,3.625-6.029,1.819
		c-2.305-1.601-1.765-3.737-0.739-5.873c0.42-0.876,0.956-1.731,1.589-2.45c4.292-4.889,8.693-9.675,12.876-14.661
		c0.748-0.894,0.641-2.572,0.931-3.889c-1.146,0.298-2.475,0.3-3.414,0.943c-4.515,3.084-8.99,6.252-13.354,9.57
		c-2.564,1.949-4.992,4.133-7.32,6.393c-3.506,3.404-7.52,5.305-12.234,5.487c-3.707,0.145-7.483-3.983-6.195-7.289
		c1.303-3.333,3.292-6.419,5.231-9.437c0.727-1.128,2.329-1.596,3.254-2.637c7.181-8.063,13.246-17.377,23.129-22.365
		c0.773-0.389,1.354-1.707,1.552-2.688c0.093-0.453-0.888-1.543-1.501-1.646c-3.851-0.629-7.912-0.821-11.111,1.893
		c-5.819,4.938-11.481,10.12-16.865,15.577c-3.913,3.968-6.977,8.874-10.952,12.756c-4.64,4.532-8.66,8.856-10.672,15.698
		c-2.063,7.01-6.266,13.388-9.658,19.974c-2.03,3.945-3.056,8.023-3.246,12.11c-1.413-0.823-2.263-1.291-2.263-1.291
		c-2.538-0.867-5.054-1.869-7.456-3.071c-3.246-1.625-4.166-1.167-4.2,2.68c-0.077,8.307-0.176,16.615-0.063,24.919
		c0.119,8.882-0.338,17.989,7.23,24.639c1.62,1.424,2.903,3.242,4.478,4.729c1.646,1.557,1.679,2.936,0.405,4.825
		c-1.919,2.845-3.639,5.843-5.281,8.868c-3.887,7.153-7.244,14.655-11.647,21.45c-3.389,5.23-7.864,9.78-12.178,14.31
		c-6.064,6.367-12.379,12.489-18.712,18.579c-1.057,1.016-2.721,1.763-4.164,1.883c-2.912,0.243-5.92,0.323-8.793-0.147
		c-16.715-2.738-33.525-3.28-50.335-1.793c-5.942,0.526-11.332-0.967-16.638-2.774c-44.8-28.594-99.504-25.202-99.504-25.202
		c-34.288-0.468-57.787,5.894-72.298,11.974c-0.078,0.017-0.158,0.032-0.236,0.05c-10.932,3.657-18.748,9.53-24.34,16.059
		c-3.674,3.022-7.414,5.962-11.613,8.277c-7.294,4.02-13.546,9.694-21.249,13.21c-6.062,2.766-11.831,6.33-18.309,7.937
		c-5.819,1.443-11.792,2.366-17.748,3.034c-2.424,0.272-4.99-1.122-7.479-1.076c-6.903,0.129-13.814,0.444-20.693,1.031
		c-3.885,0.331-5.669,3.989-3.222,6.383c2.637,2.579,5.678,4.827,8.817,6.747c4.402,2.693,9.062,4.943,13.6,7.406
		c0.66,0.358,1.203,0.957,1.877,1.27c4.144,1.936,8.309,3.821,12.468,5.721c0.345,0.158,0.69,0.38,1.053,0.422
		c4.299,0.487,8.601,1.285,12.907,1.322c4.395,0.042,8.912-0.181,13.158-1.224c3.16-0.774,6.103-2.351,9.522-2.305
		c0.986,0.014,2.075-0.903,2.964-1.6c2.328-1.821,4.618-3.699,6.831-5.667c1.338-1.191,2.175-1.455,2.84,0.615
		c1.022,3.191,2.142,6.351,3.326,9.48c0.837,2.21,1.944,4.237,3.249,6.098c10.409,28.133,30.171,44.21,36.894,49.053
		c0.657,0.013,1.596,0.989,2.307,1.575c1.052,0.867,1.891,2.07,3.038,2.742c5.133,3.007,7.546,8.167,9.924,13.252
		c0.528,1.131-0.053,3.148-0.708,4.449c-2.308,4.574-5.08,8.91-7.287,13.532c-3.504,7.336,0.506,15.781,8.126,17.254
		c4.973,0.961,10,1.689,15.03,2.256c11.038,1.241,21.56,4.634,32.091,7.943c7.82,2.457,15.598,5.103,23.25,8.059
		c7.872,3.042,15.597,6.494,23.318,9.927c1.549,0.689,2.723,1.973,1.588,4.192c-3.809,7.453-7.496,14.971-11.207,22.474
		c-1.353,2.739-2.907,4.455-6.484,4.102c-6.831-0.677-13.729-0.606-20.588-1.032c-3.16-0.196-5.632,0.311-6.5,3.913
		c-0.571,2.369-2.297,2.482-4.249,2.3c-7.716-0.726-15.122-0.342-20.689,6.344c-0.277,0.332-0.776,0.464-1.155,0.715
		c-3.928,2.599-7.854,5.204-11.78,7.807c0.065,0.34,0.13,0.678,0.196,1.018c1.054,0.153,2.106,0.421,3.163,0.438
		c8.807,0.147,17.616,0.395,26.421,0.288c3.096-0.039,6.174-1.024,9.274-1.481c2.62-0.388,5.256-0.746,7.896-0.867
		c0.678-0.03,1.842,0.781,1.977,1.392c0.141,0.642-0.518,1.699-1.115,2.244c-10.454,9.537-20.924,19.056-31.468,28.488
		c-1.833,1.64-2.555,3.38-2.046,5.796c0.449,2.129,1.087,4.306,1.031,6.444c-0.152,5.739-1.008,11.48-0.855,17.198
		c0.105,3.952,1.022,8.015,2.328,11.752c1.015,2.909,3.085,5.47,4.898,8.026c0.754,1.063,1.952,1.939,3.127,2.522
		c6.254,3.102,12.543,6.131,18.875,9.061c1.124,0.52,2.505,0.453,3.768,0.658c0.178-1.203,0.483-2.405,0.488-3.608
		c0.003-0.769-0.327-1.602-0.698-2.298c-2.371-4.46-4.862-8.854-7.182-13.339c-3.273-6.331-5.97-12.977-3.319-20.152
		c2.021-5.474,4.424-10.947,7.549-15.821c7.135-11.125,14.87-21.874,24.897-30.527c5.96-5.144,12.563-8.724,20.886-8.333
		c5.486,0.258,11.047-1.16,16.533-0.903c7.781,0.364,13.5-2.099,16.962-9.535c0.296-0.637,2.699-0.977,3.565-0.465
		c2.713,1.606,5.282,3.54,7.673,5.626c1.909,1.667,4.31,3.463,5.029,5.694c1.571,4.88,5.397,7.371,8.549,10.751
		c8.228,8.822,19.018,11.502,29.92,14.09c0.729,0.174,1.619-0.358,2.434-0.563c-0.212-0.722-0.28-1.532-0.656-2.146
		c-3.411-5.579-6.894-11.11-10.316-16.681c-2.725-4.435-5.62-8.651-10.41-11.087c-0.935-0.476-1.763-1.523-2.249-2.51
		c-3.199-6.483-6.231-13.051-9.449-19.523c-1.117-2.245-0.905-3.766,1.132-5.335c3.241-2.5,6.568-4.993,9.341-7.991
		c2.789-3.019,5.066-3.192,7.936-0.404c1.606,1.562,3.351,2.719,5.591,0.551c0.554-0.537,2.362-0.248,3.28,0.259
		c1.669,0.921,3.012,2.448,4.66,3.424c1.297,0.767,2.908,1.654,4.274,1.502c6.339-0.707,12.64-1.758,18.955-2.683
		c2.372-0.349,3.132-1.844,1.35-3.401c-2.965-2.593-6.097-5.282-9.619-6.837c-4.704-2.072-9.874-3.011-14.782-4.633
		c-1.414-0.467-2.616-1.606-3.915-2.438c0.879-1.094,1.654-2.303,2.654-3.263c4.592-4.409,9.813-8.159,12.915-14.074
		c0.451-0.858,1.247-1.576,2.13-2.202c-0.152-0.024-0.303-0.045-0.456-0.069c0,0,4.686-2.152,11.805-6.438
		c1.333-1.089,2.735-1.929,4.188-2.6c17.462-11.151,44.675-32.592,57.762-64.112c0.422-2.028,0.76-4.086,1-6.174
		c0.427-3.704,1.43-7.403,2.637-10.936c2.174-6.361,5.758-11.512,10.445-16.625c10.316-11.248,19.438-23.694,28.524-36.054
		c2.87-3.904,4.12-9.071,6.029-13.696c0.921-2.229,1.231-4.843,2.544-6.763c5.088-7.446,12.057-12.451,21.015-12.82
		c7.723-0.318,14.328-3.768,21.307-6.178c2.48-0.856,4.193-1.128,6.549,0.355c3.896,2.451,8.435,4.342,12.893,2.516
		c6.546-2.683,12.821-6.089,19.076-9.452c1.415-0.761,3.098-2.532,3.234-3.977c0.502-5.306-0.215-10.374-5.037-13.835
		c-1.649-1.183-2.85-3.03-4.514-4.183c-1.594-1.104-3.482-2.276-5.315-2.416c-5.879-0.451-11.141-2.32-16.287-5.255
		c-5.574-3.177-11.43-5.893-17.319-8.427c-6.938-2.985-14.029-5.536-19.907-10.637c-2.729-2.369-5.528-5.001-8.76-6.318
		c-0.643-0.262-1.186-0.542-1.642-0.843c-1.046-0.606-2.21-1.397-3.441-2.31c0.001-0.276,0.009-0.551,0.015-0.818
		c0.084-4.738-0.223-9.283-3.848-12.735c-0.706-0.67-1.195-1.837-1.348-2.856c-1.21-8.094,6.326-14.261,11.533-15.255
		c5.609-1.07,11.106-1.299,16.729,0.118c6.337,1.594,12.957,2.057,19.285,3.678c7.082,1.816,13.934,4.532,20.979,6.53
		c2.423,0.688,5.149,0.761,7.689,0.482c6.114-0.675,12.241-1.486,18.28-2.744c2.375-0.495,4.586-2.225,6.749-3.612
		c0.672-0.43,0.934-1.591,1.382-2.417C580.58,95.456,579.651,94.844,578.74,94.891z M264.502,365.66
		c-0.846,2.124-1.706,5.106-3.331,5.792c-1.537,0.652-4.117-1.096-6.172-1.956c-6.434-2.691-12.809-5.534-19.263-8.172
		c-3.012-1.231-6.104-2.332-9.247-3.13c-5.353-1.356-6.271-2.904-4.685-8.238c0.62-2.083,1.234-4.319,1.123-6.445
		c-0.19-3.659,1.474-5.999,3.876-8.358c2.835-2.787,5.39-5.893,7.9-9c1.51-1.87,2.821-2.303,4.26-0.143
		c2.669,4.014,5.645,7.429,9.846,10.146c3.233,2.09,4.941,6.516,7.75,9.48c2.708,2.859,5.976,5.158,8.962,7.749
		c0.863,0.748,1.6,1.646,2.309,2.386C266.621,359.422,265.719,362.605,264.502,365.66z M486.416,69.743
		c-2.062,6.219-6.97,9.931-11.192,14.214c-1.611,1.636-3.112,0.672-3.359-1.431c-0.377-3.246-0.28-6.563-0.666-9.806
		c-0.148-1.256-1.063-2.392-1.628-3.586c-0.747,0.946-1.978,1.812-2.156,2.853c-0.967,5.604-2.258,11.257-2.334,16.883
		c-0.093,6.876,0.682,13.753,1.3,20.611c-1.329-1.329-2.49-2.512-3.402-3.451c-0.479-6.312,0.004-12.74,0.068-19.118
		c0.049-5.062,0.186-10.126,0.091-15.18c-0.016-0.882-0.988-1.72-1.515-2.579c-0.834,0.746-2.006,1.322-2.441,2.263
		c-2.774,5.975-3.818,12.415-4.731,18.887c-0.156,1.115-0.634,2.189-1.135,3.662c-1.077-0.942-2.223-1.878-3.406-2.799
		c-4.021-8.919-4.341-16.722,3.22-24.475c7.055-7.24,15.111-8.011,23.885-5.125l4.925,0.897
		C486.715,62.834,487.992,64.991,486.416,69.743z"/>
	<path id="Kiss-Cut" display="none" fill="none" stroke="#FF00DD" stroke-miterlimit="10" d="M578.74,94.891
		c-2.418,0.129-4.86,0.938-7.23,0.756c-4.443-0.339-8.919-0.855-13.235-1.903c-4.969-1.206-9.914-2.745-14.584-4.822
		c-1.622-0.719-3.745-3.986-3.304-5.21c1.743-4.849,4.328-9.395,6.763-13.958c2.18-4.087,4.635-8.014,6.808-12.103
		c0.414-0.782,0.08-1.993,0.09-3.006c-0.892,0.208-1.815,0.316-2.66,0.658c-0.57,0.229-1.098,0.723-1.523,1.215
		c-4.804,5.585-9.415,11.365-14.42,16.74c-4.057,4.359-8.475,8.368-15.018,7.127c-3.363-0.639-6.842-0.69-10.193-1.368
		c-3.57-0.724-6.678-2.547-9.085-5.474c-1.456-1.766-1.267-3.696-0.178-5.564c1.086-1.871,2.61-1.841,4.456-1.228
		c6.349,2.11,12.911,2.478,19.443,0.844c2.529-0.632,5.811-1.209,6.243-5.404c-1.342-0.528-2.556-1.247-3.86-1.475
		c-5.835-1.026-11.708-1.847-17.541-2.881c-2.148-0.382-2.915-2.868-1.484-4.658c2.927-3.66,6.111-7.105,8.892-10.881
		c1.986-2.695,4.103-5.586,5.065-8.736c1.607-5.258,2.463-10.774,3.371-16.224c0.295-1.771-0.234-3.673-0.389-5.517
		c-0.566-0.057-1.133-0.114-1.701-0.171c-1.971,4.124-3.822,8.317-5.953,12.353c-1.834,3.473-3.695,7.014-6.063,10.087
		c-4.387,5.689-9.097,11.11-13.79,16.528c-1.573,1.817-3.436,3.625-6.029,1.819c-2.305-1.601-1.765-3.737-0.739-5.873
		c0.42-0.876,0.956-1.731,1.589-2.45c4.292-4.889,8.693-9.675,12.876-14.661c0.748-0.894,0.641-2.572,0.931-3.889
		c-1.146,0.298-2.475,0.3-3.414,0.943c-4.515,3.084-8.99,6.252-13.354,9.57c-2.564,1.949-4.992,4.133-7.32,6.393
		c-3.506,3.404-7.52,5.305-12.234,5.487c-3.707,0.145-7.483-3.983-6.195-7.289c1.303-3.333,3.292-6.419,5.231-9.437
		c0.727-1.128,2.329-1.596,3.254-2.637c7.181-8.063,13.246-17.377,23.129-22.365c0.773-0.389,1.354-1.707,1.552-2.688
		c0.093-0.453-0.888-1.543-1.501-1.646c-3.851-0.629-7.912-0.821-11.111,1.893c-5.819,4.938-11.481,10.12-16.865,15.577
		c-3.913,3.968-6.977,8.874-10.952,12.756c-4.64,4.532-8.66,8.856-10.672,15.698c-2.063,7.01-6.266,13.388-9.658,19.974
		c-2.03,3.945-3.056,8.023-3.246,12.11c-1.413-0.823-2.263-1.291-2.263-1.291c-2.538-0.867-5.054-1.869-7.456-3.071
		c-3.246-1.625-4.166-1.167-4.2,2.68c-0.077,8.307-0.176,16.615-0.063,24.919c0.119,8.882-0.338,17.989,7.23,24.639
		c1.62,1.424,2.903,3.242,4.478,4.729c1.646,1.557,1.679,2.936,0.405,4.825c-1.919,2.845-3.639,5.843-5.281,8.868
		c-3.887,7.153-7.244,14.655-11.647,21.45c-3.389,5.23-7.864,9.78-12.178,14.31c-6.064,6.367-12.379,12.489-18.712,18.579
		c-1.057,1.016-2.721,1.763-4.164,1.883c-2.912,0.243-5.92,0.323-8.793-0.147c-16.715-2.738-33.525-3.28-50.335-1.793
		c-5.942,0.526-11.332-0.967-16.638-2.774c-44.8-28.594-99.504-25.202-99.504-25.202c-34.288-0.468-57.787,5.894-72.298,11.974
		c-0.078,0.017-0.158,0.032-0.236,0.05c-10.932,3.657-18.748,9.53-24.34,16.059c-3.674,3.022-7.414,5.962-11.613,8.277
		c-7.294,4.02-13.546,9.694-21.249,13.21c-6.062,2.766-11.831,6.33-18.309,7.937c-5.819,1.443-11.792,2.366-17.748,3.034
		c-2.424,0.272-4.99-1.122-7.479-1.076c-6.903,0.129-13.814,0.444-20.693,1.031c-3.885,0.331-5.669,3.989-3.222,6.383
		c2.637,2.579,5.678,4.827,8.817,6.747c4.402,2.693,9.062,4.943,13.6,7.406c0.66,0.358,1.203,0.957,1.877,1.27
		c4.144,1.936,8.309,3.821,12.468,5.721c0.345,0.158,0.69,0.38,1.053,0.422c4.299,0.487,8.601,1.285,12.907,1.322
		c4.395,0.042,8.912-0.181,13.158-1.224c3.16-0.774,6.103-2.351,9.522-2.305c0.986,0.014,2.075-0.903,2.964-1.6
		c2.328-1.821,4.618-3.699,6.831-5.667c1.338-1.191,2.175-1.455,2.84,0.615c1.022,3.191,2.142,6.351,3.326,9.48
		c0.837,2.21,1.944,4.237,3.249,6.098c10.409,28.133,30.171,44.21,36.894,49.053c0.657,0.013,1.596,0.989,2.307,1.575
		c1.052,0.867,1.891,2.07,3.038,2.742c5.133,3.007,7.546,8.167,9.924,13.252c0.528,1.131-0.053,3.148-0.708,4.449
		c-2.308,4.574-5.08,8.91-7.287,13.532c-3.504,7.336,0.506,15.781,8.126,17.254c4.973,0.961,10,1.689,15.03,2.256
		c11.038,1.241,21.56,4.634,32.091,7.943c7.82,2.457,15.598,5.103,23.25,8.059c7.872,3.042,15.597,6.494,23.318,9.927
		c1.549,0.689,2.723,1.973,1.588,4.192c-3.809,7.453-7.496,14.971-11.207,22.474c-1.353,2.739-2.907,4.455-6.484,4.102
		c-6.831-0.677-13.729-0.606-20.588-1.032c-3.16-0.196-5.632,0.311-6.5,3.913c-0.571,2.369-2.297,2.482-4.249,2.3
		c-7.716-0.726-15.122-0.342-20.689,6.344c-0.277,0.332-0.776,0.464-1.155,0.715c-3.928,2.599-7.854,5.204-11.78,7.807
		c0.065,0.34,0.13,0.678,0.196,1.018c1.054,0.153,2.106,0.421,3.163,0.438c8.807,0.147,17.616,0.395,26.421,0.288
		c3.096-0.039,6.174-1.024,9.274-1.481c2.62-0.388,5.256-0.746,7.896-0.867c0.678-0.03,1.842,0.781,1.977,1.392
		c0.141,0.642-0.518,1.699-1.115,2.244c-10.454,9.537-20.924,19.056-31.468,28.488c-1.833,1.64-2.555,3.38-2.046,5.796
		c0.449,2.129,1.087,4.306,1.031,6.444c-0.152,5.739-1.008,11.48-0.855,17.198c0.105,3.952,1.022,8.015,2.328,11.752
		c1.015,2.909,3.085,5.47,4.898,8.026c0.754,1.063,1.952,1.939,3.127,2.522c6.254,3.102,12.543,6.131,18.875,9.061
		c1.124,0.52,2.505,0.453,3.768,0.658c0.178-1.203,0.483-2.405,0.488-3.608c0.003-0.769-0.327-1.602-0.698-2.298
		c-2.371-4.46-4.862-8.854-7.182-13.339c-3.273-6.331-5.97-12.977-3.319-20.152c2.021-5.474,4.424-10.947,7.549-15.821
		c7.135-11.125,14.87-21.874,24.897-30.527c5.96-5.144,12.563-8.724,20.886-8.333c5.486,0.258,11.047-1.16,16.533-0.903
		c7.781,0.364,13.5-2.099,16.962-9.535c0.296-0.637,2.699-0.977,3.565-0.465c2.713,1.606,5.282,3.54,7.673,5.626
		c1.909,1.667,4.31,3.463,5.029,5.694c1.571,4.88,5.397,7.371,8.549,10.751c8.228,8.822,19.018,11.502,29.92,14.09
		c0.729,0.174,1.619-0.358,2.434-0.563c-0.212-0.722-0.28-1.532-0.656-2.146c-3.411-5.579-6.894-11.11-10.316-16.681
		c-2.725-4.435-5.62-8.651-10.41-11.087c-0.935-0.476-1.763-1.523-2.249-2.51c-3.199-6.483-6.231-13.051-9.449-19.523
		c-1.117-2.245-0.905-3.766,1.132-5.335c3.241-2.5,6.568-4.993,9.341-7.991c2.789-3.019,5.066-3.192,7.936-0.404
		c1.606,1.562,3.351,2.719,5.591,0.551c0.554-0.537,2.362-0.248,3.28,0.259c1.669,0.921,3.012,2.448,4.66,3.424
		c1.297,0.767,2.908,1.654,4.274,1.502c6.339-0.707,12.64-1.758,18.955-2.683c2.372-0.349,3.132-1.844,1.35-3.401
		c-2.965-2.593-6.097-5.282-9.619-6.837c-4.704-2.072-9.874-3.011-14.782-4.633c-1.414-0.467-2.616-1.606-3.915-2.438
		c0.879-1.094,1.654-2.303,2.654-3.263c4.592-4.409,9.813-8.159,12.915-14.074c0.451-0.858,1.247-1.576,2.13-2.202
		c-0.152-0.024-0.303-0.045-0.456-0.069c0,0,4.686-2.152,11.805-6.438c1.333-1.089,2.735-1.929,4.188-2.6
		c17.462-11.151,44.675-32.592,57.762-64.112c0.422-2.028,0.76-4.086,1-6.174c0.427-3.704,1.43-7.403,2.637-10.936
		c2.174-6.361,5.758-11.512,10.445-16.625c10.316-11.248,19.438-23.694,28.524-36.054c2.87-3.904,4.12-9.071,6.029-13.696
		c0.921-2.229,1.231-4.843,2.544-6.763c5.088-7.446,12.057-12.451,21.015-12.82c7.723-0.318,14.328-3.768,21.307-6.178
		c2.48-0.856,4.193-1.128,6.549,0.355c3.896,2.451,8.435,4.342,12.893,2.516c6.546-2.683,12.821-6.089,19.076-9.452
		c1.415-0.761,3.098-2.532,3.234-3.977c0.502-5.306-0.215-10.374-5.037-13.835c-1.649-1.183-2.85-3.03-4.514-4.183
		c-1.594-1.104-3.482-2.276-5.315-2.416c-5.879-0.451-11.141-2.32-16.287-5.255c-5.574-3.177-11.43-5.893-17.319-8.427
		c-6.938-2.985-14.029-5.536-19.907-10.637c-2.729-2.369-5.528-5.001-8.76-6.318c-0.643-0.262-1.186-0.542-1.642-0.843
		c-1.046-0.606-2.21-1.397-3.441-2.31c0.001-0.276,0.009-0.551,0.015-0.818c0.084-4.738-0.223-9.283-3.848-12.735
		c-0.706-0.67-1.195-1.837-1.348-2.856c-1.21-8.094,6.326-14.261,11.533-15.255c5.609-1.07,11.106-1.299,16.729,0.118
		c6.337,1.594,12.957,2.057,19.285,3.678c7.082,1.816,13.934,4.532,20.979,6.53c2.423,0.688,5.149,0.761,7.689,0.482
		c6.114-0.675,12.241-1.486,18.28-2.744c2.375-0.495,4.586-2.225,6.749-3.612c0.672-0.43,0.934-1.591,1.382-2.417
		C580.58,95.456,579.651,94.844,578.74,94.891z M264.502,365.66c-0.846,2.124-1.706,5.106-3.331,5.792
		c-1.537,0.652-4.117-1.096-6.172-1.956c-6.434-2.691-12.809-5.534-19.263-8.172c-3.012-1.231-6.104-2.332-9.247-3.13
		c-5.353-1.356-6.271-2.904-4.685-8.238c0.62-2.083,1.234-4.319,1.123-6.445c-0.19-3.659,1.474-5.999,3.876-8.358
		c2.835-2.787,5.39-5.893,7.9-9c1.51-1.87,2.821-2.303,4.26-0.143c2.669,4.014,5.645,7.429,9.846,10.146
		c3.233,2.09,4.941,6.516,7.75,9.48c2.708,2.859,5.976,5.158,8.962,7.749c0.863,0.748,1.6,1.646,2.309,2.386
		C266.621,359.422,265.719,362.605,264.502,365.66z M486.416,69.743c-2.062,6.219-6.97,9.931-11.192,14.214
		c-1.611,1.636-3.112,0.672-3.359-1.431c-0.377-3.246-0.28-6.563-0.666-9.806c-0.148-1.256-1.063-2.392-1.628-3.586
		c-0.747,0.946-1.978,1.812-2.156,2.853c-0.967,5.604-2.258,11.257-2.334,16.883c-0.093,6.876,0.682,13.753,1.3,20.611
		c-1.329-1.329-2.49-2.512-3.402-3.451c-0.479-6.312,0.004-12.74,0.068-19.118c0.049-5.062,0.186-10.126,0.091-15.18
		c-0.016-0.882-0.988-1.72-1.515-2.579c-0.834,0.746-2.006,1.322-2.441,2.263c-2.774,5.975-3.818,12.415-4.731,18.887
		c-0.156,1.115-0.634,2.189-1.135,3.662c-1.077-0.942-2.223-1.878-3.406-2.799c-4.021-8.919-4.341-16.722,3.22-24.475
		c7.055-7.24,15.111-8.011,23.885-5.125l4.925,0.897C486.715,62.834,487.992,64.991,486.416,69.743z"/>
</g>
<g id="la-product-cutmask">
	<path fill="#FFFFFF" d="M578.74,94.891c-2.418,0.129-4.86,0.938-7.23,0.756c-4.443-0.339-8.919-0.855-13.235-1.903
		c-4.969-1.206-9.914-2.745-14.584-4.822c-1.622-0.719-3.745-3.986-3.304-5.21c1.743-4.849,4.328-9.395,6.763-13.958
		c2.18-4.087,4.635-8.014,6.808-12.103c0.414-0.782,0.08-1.993,0.09-3.006c-0.892,0.208-1.815,0.316-2.66,0.658
		c-0.57,0.229-1.098,0.723-1.523,1.215c-4.804,5.585-9.415,11.365-14.42,16.74c-4.057,4.359-8.475,8.368-15.018,7.127
		c-3.363-0.639-6.842-0.69-10.193-1.368c-3.57-0.724-6.678-2.547-9.085-5.474c-1.456-1.766-1.267-3.696-0.178-5.564
		c1.086-1.871,2.61-1.841,4.456-1.228c6.349,2.11,12.911,2.478,19.443,0.844c2.529-0.632,5.811-1.209,6.243-5.404
		c-1.342-0.528-2.556-1.247-3.86-1.475c-5.835-1.026-11.708-1.847-17.541-2.881c-2.148-0.382-2.915-2.868-1.484-4.658
		c2.927-3.66,6.111-7.105,8.892-10.881c1.986-2.695,4.103-5.586,5.065-8.736c1.607-5.258,2.463-10.774,3.371-16.224
		c0.295-1.771-0.234-3.673-0.389-5.517c-0.566-0.057-1.133-0.114-1.701-0.171c-1.971,4.124-3.822,8.317-5.953,12.353
		c-1.834,3.473-3.695,7.014-6.063,10.087c-4.387,5.689-9.097,11.11-13.79,16.528c-1.573,1.817-3.436,3.625-6.029,1.819
		c-2.305-1.601-1.765-3.737-0.739-5.873c0.42-0.876,0.956-1.731,1.589-2.45c4.292-4.889,8.693-9.675,12.876-14.661
		c0.748-0.894,0.641-2.572,0.931-3.889c-1.146,0.298-2.475,0.3-3.414,0.943c-4.515,3.084-8.99,6.252-13.354,9.57
		c-2.564,1.949-4.992,4.133-7.32,6.393c-3.506,3.404-7.52,5.305-12.234,5.487c-3.707,0.145-7.483-3.983-6.195-7.289
		c1.303-3.333,3.292-6.419,5.231-9.437c0.727-1.128,2.329-1.596,3.254-2.637c7.181-8.063,13.246-17.377,23.129-22.365
		c0.773-0.389,1.354-1.707,1.552-2.688c0.093-0.453-0.888-1.543-1.501-1.646c-3.851-0.629-7.912-0.821-11.111,1.893
		c-5.819,4.938-11.481,10.12-16.865,15.577c-3.913,3.968-6.977,8.874-10.952,12.756c-4.64,4.532-8.66,8.856-10.672,15.698
		c-2.063,7.01-6.266,13.388-9.658,19.974c-2.03,3.945-3.056,8.023-3.246,12.11c-1.413-0.823-2.263-1.291-2.263-1.291
		c-2.538-0.867-5.054-1.869-7.456-3.071c-3.246-1.625-4.166-1.167-4.2,2.68c-0.077,8.307-0.176,16.615-0.063,24.919
		c0.119,8.882-0.338,17.989,7.23,24.639c1.62,1.424,2.903,3.242,4.478,4.729c1.646,1.557,1.679,2.936,0.405,4.825
		c-1.919,2.845-3.639,5.843-5.281,8.868c-3.887,7.153-7.244,14.655-11.647,21.45c-3.389,5.23-7.864,9.78-12.178,14.31
		c-6.064,6.367-12.379,12.489-18.712,18.579c-1.057,1.016-2.721,1.763-4.164,1.883c-2.912,0.243-5.92,0.323-8.793-0.147
		c-16.715-2.738-33.525-3.28-50.335-1.793c-5.942,0.526-11.332-0.967-16.638-2.774c-44.8-28.594-99.504-25.202-99.504-25.202
		c-34.288-0.468-57.787,5.894-72.298,11.974c-0.078,0.017-0.158,0.032-0.236,0.05c-10.932,3.657-18.748,9.53-24.34,16.059
		c-3.674,3.022-7.414,5.962-11.613,8.277c-7.294,4.02-13.546,9.694-21.249,13.21c-6.062,2.766-11.831,6.33-18.309,7.937
		c-5.819,1.443-11.792,2.366-17.748,3.034c-2.424,0.272-4.99-1.122-7.479-1.076c-6.903,0.129-13.814,0.444-20.693,1.031
		c-3.885,0.331-5.669,3.989-3.222,6.383c2.637,2.579,5.678,4.827,8.817,6.747c4.402,2.693,9.062,4.943,13.6,7.406
		c0.66,0.358,1.203,0.957,1.877,1.27c4.144,1.936,8.309,3.821,12.468,5.721c0.345,0.158,0.69,0.38,1.053,0.422
		c4.299,0.487,8.601,1.285,12.907,1.322c4.395,0.042,8.912-0.181,13.158-1.224c3.16-0.774,6.103-2.351,9.522-2.305
		c0.986,0.014,2.075-0.903,2.964-1.6c2.328-1.821,4.618-3.699,6.831-5.667c1.338-1.191,2.175-1.455,2.84,0.615
		c1.022,3.191,2.142,6.351,3.326,9.48c0.837,2.21,1.944,4.237,3.249,6.098c10.409,28.133,30.171,44.21,36.894,49.053
		c0.657,0.013,1.596,0.989,2.307,1.575c1.052,0.867,1.891,2.07,3.038,2.742c5.133,3.007,7.546,8.167,9.924,13.252
		c0.528,1.131-0.053,3.148-0.708,4.449c-2.308,4.574-5.08,8.91-7.287,13.532c-3.504,7.336,0.506,15.781,8.126,17.254
		c4.973,0.961,10,1.689,15.03,2.256c11.038,1.241,21.56,4.634,32.091,7.943c7.82,2.457,15.598,5.103,23.25,8.059
		c7.872,3.042,15.597,6.494,23.318,9.927c1.549,0.689,2.723,1.973,1.588,4.192c-3.809,7.453-7.496,14.971-11.207,22.474
		c-1.353,2.739-2.907,4.455-6.484,4.102c-6.831-0.677-13.729-0.606-20.588-1.032c-3.16-0.196-5.632,0.311-6.5,3.913
		c-0.571,2.369-2.297,2.482-4.249,2.3c-7.716-0.726-15.122-0.342-20.689,6.344c-0.277,0.332-0.776,0.464-1.155,0.715
		c-3.928,2.599-7.854,5.204-11.78,7.807c0.065,0.34,0.13,0.678,0.196,1.018c1.054,0.153,2.106,0.421,3.163,0.438
		c8.807,0.147,17.616,0.395,26.421,0.288c3.096-0.039,6.174-1.024,9.274-1.481c2.62-0.388,5.256-0.746,7.896-0.867
		c0.678-0.03,1.842,0.781,1.977,1.392c0.141,0.642-0.518,1.699-1.115,2.244c-10.454,9.537-20.924,19.056-31.468,28.488
		c-1.833,1.64-2.555,3.38-2.046,5.796c0.449,2.129,1.087,4.306,1.031,6.444c-0.152,5.739-1.008,11.48-0.855,17.198
		c0.105,3.952,1.022,8.015,2.328,11.752c1.015,2.909,3.085,5.47,4.898,8.026c0.754,1.063,1.952,1.939,3.127,2.522
		c6.254,3.102,12.543,6.131,18.875,9.061c1.124,0.52,2.505,0.453,3.768,0.658c0.178-1.203,0.483-2.405,0.488-3.608
		c0.003-0.769-0.327-1.602-0.698-2.298c-2.371-4.46-4.862-8.854-7.182-13.339c-3.273-6.331-5.97-12.977-3.319-20.152
		c2.021-5.474,4.424-10.947,7.549-15.821c7.135-11.125,14.87-21.874,24.897-30.527c5.96-5.144,12.563-8.724,20.886-8.333
		c5.486,0.258,11.047-1.16,16.533-0.903c7.781,0.364,13.5-2.099,16.962-9.535c0.296-0.637,2.699-0.977,3.565-0.465
		c2.713,1.606,5.282,3.54,7.673,5.626c1.909,1.667,4.31,3.463,5.029,5.694c1.571,4.88,5.397,7.371,8.549,10.751
		c8.228,8.822,19.018,11.502,29.92,14.09c0.729,0.174,1.619-0.358,2.434-0.563c-0.212-0.722-0.28-1.532-0.656-2.146
		c-3.411-5.579-6.894-11.11-10.316-16.681c-2.725-4.435-5.62-8.651-10.41-11.087c-0.935-0.476-1.763-1.523-2.249-2.51
		c-3.199-6.483-6.231-13.051-9.449-19.523c-1.117-2.245-0.905-3.766,1.132-5.335c3.241-2.5,6.568-4.993,9.341-7.991
		c2.789-3.019,5.066-3.192,7.936-0.404c1.606,1.562,3.351,2.719,5.591,0.551c0.554-0.537,2.362-0.248,3.28,0.259
		c1.669,0.921,3.012,2.448,4.66,3.424c1.297,0.767,2.908,1.654,4.274,1.502c6.339-0.707,12.64-1.758,18.955-2.683
		c2.372-0.349,3.132-1.844,1.35-3.401c-2.965-2.593-6.097-5.282-9.619-6.837c-4.704-2.072-9.874-3.011-14.782-4.633
		c-1.414-0.467-2.616-1.606-3.915-2.438c0.879-1.094,1.654-2.303,2.654-3.263c4.592-4.409,9.813-8.159,12.915-14.074
		c0.451-0.858,1.247-1.576,2.13-2.202c-0.152-0.024-0.303-0.045-0.456-0.069c0,0,4.686-2.152,11.805-6.438
		c1.333-1.089,2.735-1.929,4.188-2.6c17.462-11.151,44.675-32.592,57.762-64.112c0.422-2.028,0.76-4.086,1-6.174
		c0.427-3.704,1.43-7.403,2.637-10.936c2.174-6.361,5.758-11.512,10.445-16.625c10.316-11.248,19.438-23.694,28.524-36.054
		c2.87-3.904,4.12-9.071,6.029-13.696c0.921-2.229,1.231-4.843,2.544-6.763c5.088-7.446,12.057-12.451,21.015-12.82
		c7.723-0.318,14.328-3.768,21.307-6.178c2.48-0.856,4.193-1.128,6.549,0.355c3.896,2.451,8.435,4.342,12.893,2.516
		c6.546-2.683,12.821-6.089,19.076-9.452c1.415-0.761,3.098-2.532,3.234-3.977c0.502-5.306-0.215-10.374-5.037-13.835
		c-1.649-1.183-2.85-3.03-4.514-4.183c-1.594-1.104-3.482-2.276-5.315-2.416c-5.879-0.451-11.141-2.32-16.287-5.255
		c-5.574-3.177-11.43-5.893-17.319-8.427c-6.938-2.985-14.029-5.536-19.907-10.637c-2.729-2.369-5.528-5.001-8.76-6.318
		c-0.643-0.262-1.186-0.542-1.642-0.843c-1.046-0.606-2.21-1.397-3.441-2.31c0.001-0.276,0.009-0.551,0.015-0.818
		c0.084-4.738-0.223-9.283-3.848-12.735c-0.706-0.67-1.195-1.837-1.348-2.856c-1.21-8.094,6.326-14.261,11.533-15.255
		c5.609-1.07,11.106-1.299,16.729,0.118c6.337,1.594,12.957,2.057,19.285,3.678c7.082,1.816,13.934,4.532,20.979,6.53
		c2.423,0.688,5.149,0.761,7.689,0.482c6.114-0.675,12.241-1.486,18.28-2.744c2.375-0.495,4.586-2.225,6.749-3.612
		c0.672-0.43,0.934-1.591,1.382-2.417C580.58,95.456,579.651,94.844,578.74,94.891z M264.502,365.66
		c-0.846,2.124-1.706,5.106-3.331,5.792c-1.537,0.652-4.117-1.096-6.172-1.956c-6.434-2.691-12.809-5.534-19.263-8.172
		c-3.012-1.231-6.104-2.332-9.247-3.13c-5.353-1.356-6.271-2.904-4.685-8.238c0.62-2.083,1.234-4.319,1.123-6.445
		c-0.19-3.659,1.474-5.999,3.876-8.358c2.835-2.787,5.39-5.893,7.9-9c1.51-1.87,2.821-2.303,4.26-0.143
		c2.669,4.014,5.645,7.429,9.846,10.146c3.233,2.09,4.941,6.516,7.75,9.48c2.708,2.859,5.976,5.158,8.962,7.749
		c0.863,0.748,1.6,1.646,2.309,2.386C266.621,359.422,265.719,362.605,264.502,365.66z M486.416,69.743
		c-2.062,6.219-6.97,9.931-11.192,14.214c-1.611,1.636-3.112,0.672-3.359-1.431c-0.377-3.246-0.28-6.563-0.666-9.806
		c-0.148-1.256-1.063-2.392-1.628-3.586c-0.747,0.946-1.978,1.812-2.156,2.853c-0.967,5.604-2.258,11.257-2.334,16.883
		c-0.093,6.876,0.682,13.753,1.3,20.611c-1.329-1.329-2.49-2.512-3.402-3.451c-0.479-6.312,0.004-12.74,0.068-19.118
		c0.049-5.062,0.186-10.126,0.091-15.18c-0.016-0.882-0.988-1.72-1.515-2.579c-0.834,0.746-2.006,1.322-2.441,2.263
		c-2.774,5.975-3.818,12.415-4.731,18.887c-0.156,1.115-0.634,2.189-1.135,3.662c-1.077-0.942-2.223-1.878-3.406-2.799
		c-4.021-8.919-4.341-16.722,3.22-24.475c7.055-7.24,15.111-8.011,23.885-5.125l4.925,0.897
		C486.715,62.834,487.992,64.991,486.416,69.743z"/>
</g>
<g id="la-product-mask">
	<g opacity="0.7">
		<path d="M481.938,62.465l-4.925-0.897c-8.773-2.886-16.83-2.115-23.885,5.125c-7.561,7.753-7.241,15.556-3.22,24.475
			c1.184,0.92,2.329,1.857,3.406,2.799c0.501-1.473,0.979-2.547,1.135-3.662c0.913-6.472,1.957-12.912,4.731-18.887
			c0.436-0.941,1.607-1.518,2.441-2.263c0.526,0.859,1.499,1.696,1.515,2.579c0.095,5.054-0.042,10.118-0.091,15.18
			c-0.064,6.378-0.547,12.806-0.068,19.118c0.912,0.939,2.073,2.122,3.402,3.451c-0.618-6.858-1.393-13.734-1.3-20.611
			c0.076-5.626,1.367-11.279,2.334-16.883c0.179-1.042,1.409-1.907,2.156-2.853c0.564,1.194,1.479,2.33,1.628,3.586
			c0.386,3.243,0.289,6.561,0.666,9.806c0.247,2.104,1.748,3.067,3.359,1.431c4.223-4.283,9.131-7.996,11.192-14.214
			C487.992,64.991,486.715,62.834,481.938,62.465z"/>
		<path d="M265.521,353.385c-2.986-2.591-6.253-4.89-8.962-7.749c-2.809-2.965-4.517-7.391-7.75-9.48
			c-4.202-2.717-7.177-6.132-9.846-10.146c-1.438-2.16-2.75-1.728-4.26,0.143c-2.51,3.107-5.064,6.213-7.9,9
			c-2.402,2.359-4.066,4.699-3.876,8.358c0.111,2.126-0.503,4.362-1.123,6.445c-1.586,5.334-0.668,6.882,4.685,8.238
			c3.143,0.798,6.235,1.898,9.247,3.13c6.454,2.638,12.829,5.48,19.263,8.172c2.055,0.86,4.635,2.608,6.172,1.956
			c1.625-0.686,2.485-3.668,3.331-5.792c1.217-3.055,2.119-6.238,3.329-9.89C267.122,355.031,266.384,354.133,265.521,353.385z"/>
		<path d="M-8000-8000V8000H8000V-8000H-8000z M580.118,98.186c-2.163,1.387-4.374,3.117-6.749,3.612
			c-6.039,1.258-12.166,2.069-18.28,2.744c-2.54,0.279-5.267,0.206-7.689-0.482c-7.045-1.999-13.896-4.714-20.979-6.53
			c-6.328-1.621-12.948-2.084-19.285-3.678c-5.622-1.417-11.119-1.188-16.729-0.118c-5.207,0.994-12.743,7.161-11.533,15.255
			c0.152,1.02,0.642,2.186,1.348,2.856c3.625,3.452,3.932,7.997,3.848,12.735c-0.006,0.268-0.014,0.542-0.015,0.818
			c1.231,0.913,2.396,1.704,3.441,2.31c0.456,0.301,0.999,0.581,1.642,0.843c3.231,1.317,6.031,3.949,8.76,6.318
			c5.878,5.102,12.969,7.652,19.907,10.637c5.89,2.534,11.745,5.25,17.319,8.427c5.146,2.935,10.408,4.804,16.287,5.255
			c1.833,0.14,3.722,1.312,5.315,2.416c1.664,1.153,2.864,3,4.514,4.183c4.822,3.461,5.539,8.529,5.037,13.835
			c-0.137,1.445-1.819,3.216-3.234,3.977c-6.255,3.363-12.53,6.77-19.076,9.452c-4.458,1.826-8.996-0.064-12.893-2.516
			c-2.355-1.483-4.068-1.211-6.549-0.355c-6.979,2.41-13.584,5.859-21.307,6.178c-8.958,0.369-15.927,5.374-21.015,12.82
			c-1.313,1.92-1.623,4.533-2.544,6.763c-1.909,4.625-3.159,9.792-6.029,13.696c-9.086,12.36-18.208,24.806-28.524,36.054
			c-4.688,5.112-8.271,10.263-10.445,16.625c-1.207,3.532-2.21,7.231-2.637,10.936c-0.24,2.088-0.578,4.146-1,6.174
			c-13.087,31.521-40.3,52.961-57.762,64.112c-1.453,0.671-2.855,1.511-4.188,2.6c-7.119,4.286-11.805,6.438-11.805,6.438
			c0.153,0.024,0.304,0.045,0.456,0.069c-0.883,0.626-1.679,1.344-2.13,2.202c-3.103,5.915-8.323,9.665-12.915,14.074
			c-1,0.96-1.775,2.169-2.654,3.263c1.299,0.831,2.501,1.971,3.915,2.438c4.908,1.622,10.078,2.561,14.782,4.633
			c3.522,1.555,6.654,4.244,9.619,6.837c1.782,1.558,1.022,3.053-1.35,3.401c-6.315,0.925-12.616,1.976-18.955,2.683
			c-1.366,0.152-2.978-0.735-4.274-1.502c-1.648-0.976-2.991-2.503-4.66-3.424c-0.918-0.507-2.727-0.796-3.28-0.259
			c-2.24,2.168-3.984,1.011-5.591-0.551c-2.869-2.788-5.146-2.614-7.936,0.404c-2.772,2.998-6.1,5.491-9.341,7.991
			c-2.037,1.569-2.249,3.09-1.132,5.335c3.218,6.473,6.25,13.04,9.449,19.523c0.486,0.986,1.314,2.034,2.249,2.51
			c4.79,2.436,7.686,6.652,10.41,11.087c3.423,5.57,6.905,11.102,10.316,16.681c0.376,0.614,0.444,1.425,0.656,2.146
			c-0.814,0.204-1.704,0.736-2.434,0.563c-10.902-2.588-21.692-5.268-29.92-14.09c-3.151-3.38-6.978-5.871-8.549-10.751
			c-0.72-2.231-3.12-4.027-5.029-5.694c-2.392-2.086-4.96-4.02-7.673-5.626c-0.866-0.512-3.269-0.172-3.565,0.465
			c-3.461,7.437-9.181,9.899-16.962,9.535c-5.486-0.257-11.047,1.161-16.533,0.903c-8.323-0.391-14.926,3.189-20.886,8.333
			c-10.027,8.653-17.762,19.402-24.897,30.527c-3.125,4.874-5.527,10.348-7.549,15.821c-2.65,7.176,0.046,13.821,3.319,20.152
			c2.32,4.485,4.812,8.879,7.182,13.339c0.371,0.696,0.701,1.529,0.698,2.298c-0.005,1.203-0.31,2.405-0.488,3.608
			c-1.263-0.205-2.644-0.139-3.768-0.658c-6.332-2.93-12.621-5.959-18.875-9.061c-1.175-0.583-2.373-1.459-3.127-2.522
			c-1.813-2.557-3.883-5.117-4.898-8.026c-1.306-3.737-2.223-7.8-2.328-11.752c-0.153-5.718,0.703-11.459,0.855-17.198
			c0.057-2.139-0.582-4.315-1.031-6.444c-0.509-2.416,0.213-4.156,2.046-5.796c10.544-9.433,21.014-18.951,31.468-28.488
			c0.597-0.545,1.256-1.603,1.115-2.244c-0.135-0.61-1.298-1.422-1.977-1.392c-2.64,0.121-5.275,0.479-7.896,0.867
			c-3.1,0.457-6.178,1.442-9.274,1.481c-8.805,0.106-17.614-0.141-26.421-0.288c-1.057-0.017-2.109-0.284-3.163-0.438
			c-0.066-0.34-0.131-0.678-0.196-1.018c3.926-2.603,7.852-5.208,11.78-7.807c0.379-0.251,0.878-0.383,1.155-0.715
			c5.568-6.686,12.973-7.069,20.689-6.344c1.952,0.183,3.678,0.069,4.249-2.3c0.868-3.603,3.34-4.109,6.5-3.913
			c6.859,0.426,13.757,0.355,20.588,1.032c3.577,0.354,5.131-1.362,6.484-4.102c3.71-7.503,7.398-15.021,11.207-22.474
			c1.135-2.22-0.039-3.503-1.588-4.192c-7.721-3.433-15.446-6.885-23.318-9.927c-7.652-2.956-15.43-5.602-23.25-8.059
			c-10.531-3.31-21.053-6.702-32.091-7.943c-5.03-0.566-10.057-1.295-15.03-2.256c-7.62-1.473-11.63-9.918-8.126-17.254
			c2.208-4.622,4.979-8.958,7.287-13.532c0.655-1.301,1.236-3.318,0.708-4.449c-2.378-5.085-4.792-10.245-9.924-13.252
			c-1.146-0.672-1.985-1.875-3.038-2.742c-0.711-0.586-1.65-1.563-2.307-1.575c-6.723-4.843-26.485-20.92-36.894-49.053
			c-1.304-1.861-2.412-3.888-3.249-6.098c-1.184-3.129-2.304-6.289-3.326-9.48c-0.665-2.07-1.501-1.806-2.84-0.615
			c-2.212,1.968-4.503,3.847-6.831,5.667c-0.889,0.697-1.978,1.614-2.964,1.6c-3.419-0.045-6.362,1.531-9.522,2.305
			c-4.247,1.043-8.764,1.265-13.158,1.224c-4.307-0.037-8.608-0.834-12.907-1.322c-0.363-0.042-0.708-0.264-1.053-0.422
			c-4.16-1.9-8.325-3.785-12.468-5.721c-0.674-0.313-1.217-0.912-1.877-1.27c-4.538-2.463-9.198-4.713-13.6-7.406
			c-3.14-1.92-6.181-4.168-8.817-6.747c-2.447-2.394-0.664-6.052,3.222-6.383c6.878-0.587,13.79-0.901,20.693-1.031
			c2.489-0.046,5.056,1.348,7.479,1.076c5.956-0.668,11.929-1.591,17.748-3.034c6.479-1.607,12.248-5.171,18.309-7.937
			c7.702-3.516,13.955-9.19,21.249-13.21c4.199-2.314,7.939-5.255,11.613-8.277c5.592-6.529,13.409-12.401,24.34-16.059
			c0.078-0.018,0.158-0.033,0.236-0.05c14.511-6.08,38.01-12.442,72.298-11.974c0,0,54.704-3.392,99.504,25.202
			c5.306,1.807,10.695,3.3,16.638,2.774c16.81-1.487,33.62-0.944,50.335,1.793c2.873,0.47,5.881,0.39,8.793,0.147
			c1.443-0.121,3.107-0.867,4.164-1.883c6.333-6.09,12.647-12.212,18.712-18.579c4.313-4.53,8.789-9.08,12.178-14.31
			c4.403-6.795,7.761-14.297,11.647-21.45c1.643-3.025,3.362-6.023,5.281-8.868c1.273-1.89,1.241-3.268-0.405-4.825
			c-1.574-1.487-2.857-3.306-4.478-4.729c-7.568-6.649-7.111-15.756-7.23-24.639c-0.112-8.305-0.014-16.613,0.063-24.919
			c0.034-3.848,0.954-4.306,4.2-2.68c2.402,1.202,4.918,2.205,7.456,3.071c0,0,0.85,0.468,2.263,1.291
			c0.19-4.087,1.216-8.165,3.246-12.11c3.393-6.586,7.595-12.964,9.658-19.974c2.012-6.841,6.032-11.166,10.672-15.698
			c3.976-3.882,7.039-8.788,10.952-12.756c5.384-5.457,11.046-10.639,16.865-15.577c3.199-2.714,7.261-2.522,11.111-1.893
			c0.613,0.102,1.594,1.193,1.501,1.646c-0.197,0.981-0.778,2.299-1.552,2.688c-9.883,4.988-15.948,14.302-23.129,22.365
			c-0.925,1.041-2.527,1.508-3.254,2.637c-1.939,3.018-3.929,6.103-5.231,9.437c-1.288,3.306,2.488,7.434,6.195,7.289
			c4.715-0.182,8.729-2.083,12.234-5.487c2.328-2.26,4.756-4.444,7.32-6.393c4.364-3.318,8.84-6.486,13.354-9.57
			c0.939-0.644,2.269-0.645,3.414-0.943c-0.29,1.317-0.183,2.995-0.931,3.889c-4.183,4.986-8.584,9.772-12.876,14.661
			c-0.633,0.719-1.169,1.573-1.589,2.45c-1.025,2.136-1.565,4.272,0.739,5.873c2.594,1.806,4.456-0.001,6.029-1.819
			c4.693-5.418,9.403-10.839,13.79-16.528c2.367-3.073,4.229-6.614,6.063-10.087c2.131-4.036,3.982-8.229,5.953-12.353
			c0.568,0.057,1.135,0.114,1.701,0.171c0.154,1.844,0.684,3.746,0.389,5.517c-0.908,5.45-1.764,10.965-3.371,16.224
			c-0.963,3.15-3.079,6.042-5.065,8.736c-2.78,3.775-5.965,7.221-8.892,10.881c-1.431,1.79-0.664,4.275,1.484,4.658
			c5.833,1.035,11.706,1.855,17.541,2.881c1.305,0.228,2.519,0.947,3.86,1.475c-0.433,4.195-3.714,4.771-6.243,5.404
			c-6.532,1.634-13.095,1.266-19.443-0.844c-1.846-0.613-3.37-0.643-4.456,1.228c-1.089,1.868-1.278,3.798,0.178,5.564
			c2.407,2.927,5.515,4.75,9.085,5.474c3.352,0.677,6.83,0.729,10.193,1.368c6.543,1.241,10.961-2.768,15.018-7.127
			c5.005-5.375,9.616-11.155,14.42-16.74c0.426-0.492,0.953-0.986,1.523-1.215c0.845-0.342,1.769-0.45,2.66-0.658
			c-0.01,1.014,0.324,2.225-0.09,3.006c-2.173,4.089-4.628,8.016-6.808,12.103c-2.435,4.564-5.02,9.11-6.763,13.958
			c-0.441,1.224,1.682,4.491,3.304,5.21c4.67,2.077,9.615,3.616,14.584,4.822c4.316,1.048,8.792,1.564,13.235,1.903
			c2.37,0.183,4.813-0.627,7.23-0.756c0.911-0.047,1.84,0.565,2.76,0.878C581.052,96.594,580.79,97.755,580.118,98.186z"/>
	</g>
</g>
<g id="la-scissors-icon" display="none">
	<path fill="#0B0B0B" d="M470.1,309.5c-8.6,2.5-8.2,11.6-9.5,18.1c-0.9,4.2-1.8,8.3-2.3,11.7c-4.2,0.5-8.4,2.2-12.6,2.7
		c-0.4-2.4-0.6-4.5-2.8-6.4c-2.6-2.1-6.1-1.5-8.7-0.1c-0.8,0.7-1.5,1.5-2.3,2.2c-1.3,2.1-1.6,4.3-1.2,5.7c1.1,4.1,5.5,5.9,8.5,5.4
		c3-0.5,5.9-2.6,9.3-3.4c3.6-0.9,6.6-0.3,9.3,0c0.1,0.3,0.1,0.5,0.1,0.8c0.5,3,0.5,5.7-0.4,8.8c-1.5,5.4-5.9,10-2.9,15
		c0.7,0.7,1.4,1.5,2.1,2.2c2.5,1.6,5.1,1.5,7.7,0.1c0.8-0.7,1.5-1.5,2.3-2.2c3.6-4,0.6-11.9-5.7-11.7c0.3-4.3,2.8-8.5,3.1-12.7
		c3.5-0.5,7.9-1.3,12.6-1.9c4.3-0.6,9.1-0.6,12.5-2c2.5-1.1,5-3.8,5.6-6.3c-0.2-0.2-0.4-0.4-0.6-0.6c-9.3,1.3-18.7,2.3-28,3.7
		c-0.2,0-0.3,0-0.5,0.1c1.3-9.5,3.2-19,5-28.5C470.4,309.8,470.2,309.6,470.1,309.5z M434.3,343.6c-2.5-4.1,3.8-7.8,6.8-4.7
		C445.4,343.2,437.4,348.5,434.3,343.6z M464.5,367.1c-1.3,3.3-4.9,4.1-6.9,1.2c-1.3-1.9-1.4-4.5,0.9-6.3
		C461.6,359.6,465.8,363.8,464.5,367.1z"/>
</g>
</svg>
